<svg xmlns="http://www.w3.org/2000/svg" aria-hidden="true" style="position:absolute;width:0;height:0;overflow:hidden">
  <defs>
    <!-- ============================
    HEADER
    ====================== -->
    <symbol id="logo" viewBox="0 0 30 32">
      <path
        d="M15.226 17.082c1.415-3.784-1.515-5.856-3.457-7.217-0.371-0.278-0.743-0.538-1.043-0.776-0.537-0.447-0.933-1.037-1.141-1.699s-0.217-1.37-0.029-2.037c0.019-0.070 0.019-0.144-0.001-0.213s-0.060-0.132-0.114-0.181c-0.054-0.049-0.121-0.083-0.193-0.097s-0.147-0.009-0.216 0.016c-0.654 0.255-1.262 0.612-1.801 1.058-0.518 0.393-0.937 0.898-1.226 1.476s-0.44 1.213-0.441 1.858c-0.366 0.285-0.69 0.618-0.962 0.992-0.499 0.672-0.75 1.492-0.709 2.324-0.595 0.538-1.038 1.22-1.286 1.977s-0.292 1.566-0.129 2.345c-0.237 0.141-0.42 0.355-0.521 0.608s-0.116 0.533-0.041 0.795c0.075 0.262 0.235 0.493 0.456 0.657s0.49 0.251 0.767 0.25h0.026v2.152c0 0.218 0.088 0.428 0.245 0.582s0.369 0.241 0.591 0.241h0.65l1.058 9.040c0.022 0.201 0.119 0.387 0.272 0.523s0.351 0.21 0.556 0.209h4.404c0.206-0 0.404-0.075 0.557-0.21s0.251-0.321 0.275-0.522l1.058-9.040h0.65c0.222 0 0.434-0.087 0.591-0.241s0.245-0.364 0.245-0.582v-2.152h0.026c0.336 0 0.658-0.131 0.895-0.366s0.371-0.551 0.371-0.883c0.002-0.165-0.030-0.329-0.094-0.482s-0.158-0.291-0.277-0.408l-0.011 0.004zM5.695 10.216c0.535 1.98 2.599 2.76 4.482 3.455 0.051 0.031 0.107 0.050 0.166 0.057s0.119 0 0.175-0.018c0.056-0.019 0.108-0.049 0.151-0.090s0.076-0.090 0.098-0.145c0.021-0.055 0.030-0.113 0.026-0.172s-0.021-0.115-0.050-0.166c-0.029-0.051-0.069-0.095-0.117-0.129s-0.104-0.057-0.162-0.068c-2.027-0.758-3.939-1.464-4.084-3.488-0.034-0.556 0.072-1.112 0.308-1.619s0.596-0.947 1.047-1.284c0.282-0.232 0.586-0.437 0.906-0.615-0.021 0.253-0.021 0.508 0 0.761 0.043 0.58 0.204 1.146 0.473 1.663s0.641 0.976 1.094 1.349c0.308 0.26 0.691 0.527 1.114 0.813 0.976 0.692 2.087 1.464 2.792 2.511 0.376 0.537 0.611 1.158 0.681 1.807s-0.024 1.305-0.277 1.908h-1.641c-3.383 0-7.27-0.922-8.039-3.506-0.152-0.532-0.151-1.095 0.004-1.626s0.457-1.009 0.873-1.379l-0.019-0.018zM8.74 22.693l1.24 1.222-1.24 1.222-1.24-1.23 1.24-1.215zM11.584 25.903l-1.025 1.010-1.24-1.222 1.24-1.219 1.077 1.058-0.052 0.373zM8.74 28.706l-1.24-1.222 1.24-1.222 1.24 1.222-1.24 1.222zM8.172 25.698l-1.24 1.222-1.032-1.017-0.045-0.366 1.077-1.058 1.24 1.219zM6.36 27.484l-0.249 0.245-0.063-0.556 0.312 0.311zM6.23 28.735l0.702-0.692 1.363 1.354c0.007 0.027 0.016 0.054 0.026 0.081h-2.005l-0.085-0.743zM10.552 28.044l0.702 0.692-0.085 0.732h-2.061l1.444-1.424zM11.369 27.729l-0.249-0.245 0.316-0.311-0.067 0.556zM11.74 24.53l-0.62-0.622 0.787-0.776-0.167 1.398zM10.548 23.352l-1.177-1.157h2.354l-1.177 1.157zM6.928 23.352l-1.177-1.157h2.354l-1.177 1.157zM10.938 31.169h-4.4c-0.007-0.001-0.013-0.004-0.018-0.008s-0.008-0.011-0.008-0.017l-0.104-0.878h4.663l-0.1 0.878c-0.001 0.007-0.004 0.014-0.010 0.018s-0.012 0.007-0.020 0.007h-0.004zM14.343 18.418h-1.292c-0.056-0.005-0.113 0.001-0.166 0.019s-0.103 0.046-0.145 0.083c-0.042 0.037-0.075 0.083-0.098 0.134s-0.035 0.106-0.035 0.161c0 0.056 0.012 0.111 0.035 0.161s0.056 0.096 0.098 0.134c0.042 0.037 0.091 0.066 0.145 0.083s0.11 0.024 0.166 0.019h0.46v2.152c-0.001 0.007-0.004 0.014-0.010 0.018s-0.012 0.007-0.020 0.007h-9.494c-0.007 0-0.014-0.003-0.020-0.007s-0.009-0.011-0.010-0.018v-2.152h7.355c0.1-0.009 0.193-0.055 0.261-0.129s0.105-0.169 0.105-0.268-0.037-0.195-0.105-0.268c-0.068-0.073-0.161-0.119-0.261-0.129h-8.168c-0.064 0.006-0.128-0.002-0.188-0.022s-0.116-0.053-0.163-0.095c-0.047-0.043-0.085-0.094-0.111-0.152s-0.039-0.12-0.039-0.183c0-0.063 0.013-0.125 0.039-0.183s0.063-0.109 0.111-0.152c0.047-0.043 0.103-0.075 0.163-0.095s0.125-0.028 0.188-0.022h0.843c0.1-0.009 0.193-0.055 0.261-0.129s0.105-0.169 0.105-0.268-0.037-0.195-0.105-0.268c-0.068-0.073-0.161-0.119-0.261-0.129h-0.743c-0.106-0.557-0.089-1.13 0.051-1.68s0.399-1.063 0.759-1.505c0.26 0.798 0.928 1.889 2.599 2.756 1.571 0.809 3.65 1.222 6.178 1.222h1.485c0.064-0.006 0.128 0.002 0.188 0.022s0.116 0.053 0.163 0.095c0.047 0.043 0.085 0.094 0.111 0.152s0.039 0.12 0.039 0.183c0 0.063-0.013 0.125-0.039 0.183s-0.063 0.109-0.111 0.152c-0.047 0.043-0.103 0.075-0.163 0.095s-0.125 0.028-0.188 0.022h0.026z">
      </path>
      <path
        d="M16.964 29.152l-0.292 0.449 0.006 0.004 0.287-0.453zM20.113 29.303l0.535-0.012-0.014-0.62-0.611 0.104 0.090 0.528zM20.15 30.951l0.136 0.518 0.409-0.108-0.009-0.422-0.535 0.012zM16.017 31.030l0.12-0.522-0.003-0.001-0.117 0.523zM13.977 30.119l0.347-0.408-0.001-0.001-0.346 0.409zM13.24 28.446l0.536 0.003v-0.003h-0.536zM13.496 27.274l-0.481-0.236-0 0.001 0.481 0.236zM15.139 25.872l0.19 0.501 0.002-0.001-0.192-0.5zM20.401 25.736l0.534 0.042 0.035-0.452-0.44-0.109-0.129 0.52zM20.27 27.415l-0.1 0.526 0.587 0.111 0.046-0.596-0.534-0.042zM18.842 26.728c-0.804 0-1.48 0.086-1.973 0.303-0.253 0.111-0.483 0.268-0.651 0.489-0.173 0.228-0.255 0.494-0.255 0.774h1.071c0-0.063 0.015-0.098 0.038-0.127 0.028-0.037 0.090-0.095 0.228-0.155 0.288-0.126 0.784-0.212 1.542-0.212v-1.071zM15.963 28.294c0 0.551 0.247 1.006 0.709 1.307l0.585-0.897c-0.159-0.104-0.222-0.221-0.222-0.409h-1.071zM16.678 29.604c0.438 0.277 1.015 0.381 1.662 0.381v-1.071c-0.559 0-0.899-0.095-1.089-0.215l-0.573 0.905zM18.34 29.986c0.636 0 1.257-0.051 1.863-0.154l-0.179-1.056c-0.545 0.092-1.106 0.139-1.684 0.139v1.071zM19.578 29.315l0.037 1.648 1.071-0.024-0.037-1.648-1.071 0.024zM20.013 30.433c-0.612 0.161-1.288 0.244-2.029 0.244v1.071c0.821 0 1.589-0.092 2.302-0.279l-0.273-1.036zM17.984 30.677c-0.757 0-1.369-0.059-1.847-0.169l-0.24 1.044c0.582 0.134 1.281 0.197 2.087 0.197v-1.071zM16.134 30.507c-0.511-0.114-0.88-0.236-1.127-0.356l-0.47 0.963c0.354 0.173 0.814 0.316 1.363 0.439l0.234-1.045zM15.008 30.151c-0.264-0.129-0.491-0.276-0.684-0.44l-0.693 0.817c0.267 0.227 0.571 0.421 0.907 0.585l0.47-0.963zM14.323 29.71c-0.364-0.308-0.55-0.709-0.548-1.262l-1.071-0.005c-0.004 0.842 0.301 1.556 0.927 2.086l0.691-0.818zM13.776 28.446c0-0.36 0.071-0.669 0.202-0.936l-0.962-0.471c-0.211 0.43-0.311 0.903-0.311 1.407h1.071zM13.977 27.51c0.244-0.495 0.674-0.88 1.352-1.137l-0.38-1.002c-0.884 0.336-1.549 0.885-1.933 1.666l0.961 0.473zM15.331 26.372c0.713-0.274 1.508-0.414 2.392-0.414v-1.071c-0.999 0-1.926 0.159-2.776 0.485l0.384 1zM17.723 25.958c0.902 0 1.751 0.1 2.549 0.298l0.258-1.040c-0.889-0.221-1.826-0.33-2.807-0.33v1.071zM19.867 25.695l-0.131 1.679 1.068 0.083 0.131-1.679-1.068-0.083zM20.37 26.889c-0.557-0.106-1.068-0.161-1.528-0.161v1.071c0.377 0 0.818 0.046 1.328 0.142l0.2-1.052zM25.596 27.745l-0.003 0.536 0.544 0.003-0.006-0.544-0.536 0.006zM25.366 27.049l-0.364 0.393 0.005 0.004 0.36-0.397zM24.032 27.101l0.371 0.386 0.004-0.004-0.375-0.383zM23.708 27.734l-0.529-0.087-0.102 0.619 0.627 0.003 0.003-0.536zM27.646 30.59l0.324 0.427 0.193-0.146 0.018-0.241-0.534-0.040zM26.49 31.019l-0.115-0.523-0.003 0.001 0.118 0.522zM22.473 30.873l-0.183 0.504 0.004 0.002 0.178-0.505zM21.558 30.386l-0.332 0.42 0.003 0.003 0.003 0.003 0.326-0.425zM20.946 29.617l-0.48 0.237 0.001 0.002 0.479-0.24zM21.573 26.369l0.356 0.4 0-0-0.356-0.4zM26.469 25.788l0.214-0.491-0.005-0.002-0.209 0.493zM27.699 26.918l-0.482 0.234 0.001 0.003 0.48-0.237zM27.908 27.855l0.534 0.039 0.001-0.019v-0.019h-0.536zM27.845 28.718l-0.003 0.536 0.501 0.002 0.036-0.499-0.534-0.039zM23.603 28.697l0.003-0.536-0.699-0.003 0.178 0.676 0.518-0.137zM24.21 29.445l-0.264 0.466 0.002 0.001 0.261-0.468zM27.463 29.262v-0.536h-0.107l-0.099 0.041 0.206 0.494zM27.746 29.262l0.534 0.040 0.043-0.576h-0.577v0.536zM26.131 27.739c-0.004-0.387-0.093-0.803-0.406-1.087l-0.72 0.794c-0.006-0.006 0.006 0.001 0.021 0.047 0.016 0.049 0.032 0.131 0.033 0.257l1.071-0.011zM25.73 26.657c-0.281-0.261-0.65-0.347-1.013-0.347v1.071c0.209 0 0.272 0.050 0.284 0.061l0.729-0.785zM24.717 26.309c-0.399 0-0.77 0.125-1.060 0.409l0.75 0.765c0.058-0.057 0.144-0.103 0.31-0.103v-1.071zM23.661 26.715c-0.264 0.253-0.423 0.572-0.482 0.932l1.057 0.174c0.024-0.149 0.082-0.252 0.167-0.333l-0.742-0.773zM23.705 28.27l1.888 0.011 0.006-1.071-1.888-0.011-0.006 1.071zM27.323 30.163c-0.117 0.089-0.404 0.213-0.948 0.333l0.23 1.046c0.565-0.124 1.049-0.286 1.364-0.525l-0.647-0.854zM26.372 30.497c-0.519 0.117-1.018 0.175-1.498 0.175v1.071c0.566 0 1.145-0.068 1.735-0.201l-0.237-1.045zM24.874 30.672c-0.505 0-0.92-0.024-1.252-0.068l-0.143 1.062c0.394 0.053 0.86 0.078 1.395 0.078v-1.071zM23.622 30.603c-0.325-0.044-0.649-0.122-0.971-0.236l-0.357 1.010c0.389 0.137 0.784 0.233 1.184 0.287l0.143-1.062zM22.656 30.369c-0.313-0.114-0.568-0.251-0.772-0.408l-0.652 0.85c0.305 0.234 0.66 0.421 1.059 0.565l0.365-1.007zM21.89 29.966c-0.184-0.146-0.34-0.338-0.465-0.588l-0.958 0.479c0.189 0.377 0.44 0.697 0.759 0.949l0.665-0.84zM21.426 29.38c-0.113-0.228-0.18-0.521-0.18-0.898h-1.071c0 0.502 0.090 0.966 0.291 1.372l0.96-0.475zM21.246 28.482c0-0.377 0.068-0.71 0.196-1.006l-0.983-0.427c-0.192 0.443-0.285 0.923-0.285 1.432h1.071zM21.442 27.477c0.135-0.311 0.3-0.541 0.487-0.708l-0.712-0.8c-0.322 0.287-0.572 0.653-0.758 1.081l0.983 0.427zM21.93 26.769c0.576-0.513 1.454-0.811 2.719-0.811v-1.071c-1.42 0-2.592 0.334-3.432 1.083l0.713 0.8zM24.649 25.958c0.568 0 1.103 0.108 1.611 0.324l0.418-0.986c-0.643-0.273-1.321-0.409-2.029-0.409v1.071zM26.255 26.279c0.474 0.207 0.78 0.5 0.962 0.873l0.963-0.468c-0.307-0.631-0.82-1.091-1.497-1.387l-0.428 0.982zM27.218 27.155c0.1 0.203 0.154 0.433 0.154 0.699h1.071c0-0.417-0.086-0.811-0.265-1.173l-0.96 0.474zM27.374 27.816l-0.063 0.863 1.068 0.078 0.063-0.863-1.068-0.078zM27.848 28.182l-4.242-0.021-0.005 1.071 4.242 0.021 0.005-1.071zM23.085 28.833c0.125 0.475 0.431 0.835 0.861 1.078l0.527-0.933c-0.212-0.12-0.31-0.258-0.352-0.418l-1.036 0.273zM23.948 29.912c0.434 0.243 0.978 0.34 1.585 0.34v-1.071c-0.509 0-0.848-0.084-1.062-0.204l-0.523 0.935zM25.533 30.252c0.651 0 1.367-0.176 2.136-0.496l-0.412-0.989c-0.689 0.287-1.26 0.414-1.724 0.414v1.071zM27.463 29.797h0.282v-1.071h-0.282v1.071zM27.212 29.222l-0.099 1.329 1.068 0.080 0.099-1.329-1.068-0.080z">
      </path>
    </symbol>
    <symbol id="arrow-btn" viewBox="0 0 32 32">
      <path
        d="M10.586 3.272a2 2 0 0 0 0 2.828l9.9 9.9-9.9 9.9a1.998 1.998 0 0 0 .025 2.804 2.001 2.001 0 0 0 2.804.025l11.314-11.314a2 2 0 0 0 0-2.828L13.415 3.273a2 2 0 0 0-2.828 0z" />
    </symbol>
    <symbol id="burger-btn" viewBox="0 0 32 32">
      <path
        d="M26.733 14.667h-21.467c-0.7 0-1.267 0.567-1.267 1.267v0.133c0 0.7 0.567 1.267 1.267 1.267h21.467c0.7 0 1.267-0.567 1.267-1.267v-0.133c0-0.7-0.567-1.267-1.267-1.267z">
      </path>
      <path
        d="M26.733 21.333h-21.467c-0.7 0-1.267 0.567-1.267 1.267v0.133c0 0.7 0.567 1.267 1.267 1.267h21.467c0.7 0 1.267-0.567 1.267-1.267v-0.133c0-0.7-0.567-1.267-1.267-1.267z">
      </path>
      <path
        d="M26.733 8h-21.467c-0.7 0-1.267 0.567-1.267 1.267v0.133c0 0.7 0.567 1.267 1.267 1.267h21.467c0.7 0 1.267-0.567 1.267-1.267v-0.133c0-0.7-0.567-1.267-1.267-1.267z">
      </path>
    </symbol>

    <symbol id="hero-arrow" viewBox="0 0 82 32">
      <path
        d="M81.414 17.414c0.781-0.781 0.781-2.047 0-2.828l-12.728-12.728c-0.781-0.781-2.047-0.781-2.828 0s-0.781 2.047 0 2.828l11.314 11.314-11.314 11.314c-0.781 0.781-0.781 2.047 0 2.828s2.047 0.781 2.828 0l12.728-12.728zM0 18h80v-4h-80v4z">
      </path>
    </symbol>
    <!-- ========================
    PRODUCTS 
    =================================== -->
    <symbol id="product-btn" viewBox="0 0 82 32">
      <path
        d="M81.414 17.414c0.781-0.781 0.781-2.047 0-2.828l-12.728-12.728c-0.781-0.781-2.047-0.781-2.828 0s-0.781 2.047 0 2.828l11.314 11.314-11.314 11.314c-0.781 0.781-0.781 2.047 0 2.828s2.047 0.781 2.828 0l12.728-12.728zM0 18h80v-4h-80v4z">
      </path>
    </symbol>
    <!-- ========================
    ADVANTAGES
    =================================== -->
    <symbol id="cow" viewBox="0 0 31 32">
      <path
        d="M6.002.778c-.254.219-.979 1.733-1.24 2.559-.31 1.024-.416 1.791-.373 2.852.056 1.514.437 2.661 1.275 3.861.218.314.394.585.394.607 0 .015-.134.029-.303.029-.726 0-2.085.241-3.128.556C.972 11.739 0 12.609 0 13.582c0 .344.31.929.641 1.228.641.578 2.043 1.126 3.55 1.389.521.095 2.071.256 2.416.263.063 0 .085.336.085 1.44 0 .951.035 1.689.106 2.142.254 1.623 1.043 3.341 2.085 4.555l.359.417-.24.387c-.352.548-.486.965-.528 1.587-.106 1.492.824 2.815 2.62 3.744 3.423 1.777 8.742 1.082 10.735-1.404.972-1.214 1.085-2.603.317-3.861l-.239-.388.43-.519c.803-.965 1.324-1.93 1.719-3.151.331-1.038.458-2.04.458-3.627 0-.724.021-1.323.056-1.323.324-.007 1.881-.175 2.374-.263 1.515-.263 2.888-.804 3.55-1.389.331-.3.641-.885.641-1.228 0-1.082-1.099-1.96-3.142-2.486-.669-.175-1.93-.387-2.543-.424l-.289-.022.317-.439c.394-.534.888-1.572 1.078-2.252.535-1.967.204-4.255-.944-6.442-.479-.907-.81-1.119-1.198-.76-.148.139-.211.329-.352 1.016-.437 2.186-1.247 3.919-2.43 5.199l-.521.57H9.967l-.465-.505c-1.155-1.272-1.993-3.071-2.43-5.264-.141-.687-.204-.877-.352-1.016-.232-.212-.458-.205-.718.022zm.901 4.336c.373.819.838 1.587 1.388 2.296l.437.563-.458.344a4.6 4.6 0 0 0-1.141 1.331l-.134.241-.338-.461c-1.155-1.594-1.444-3.546-.831-5.571.296-.98.289-.972.556-.124.127.409.366 1.031.521 1.382zm18.336-1.543a7.22 7.22 0 0 1 .402 2.464c0 1.331-.352 2.457-1.092 3.466l-.331.453-.247-.417a4.38 4.38 0 0 0-1.233-1.353c-.19-.124-.338-.249-.338-.263 0-.022.134-.19.303-.373.782-.87 1.62-2.435 2.036-3.78.127-.417.254-.76.275-.76s.127.256.225.563zM21.64 8.916c.782.329 1.529 1.272 1.648 2.069.063.439.211.717.402.76.084.015.669.066 1.296.11 2.226.146 3.98.621 4.727 1.272.345.307.31.563-.106.877-.831.629-2.627 1.104-4.459 1.184-1.212.051-1.465.088-1.627.256-.12.124-.134.256-.134 1.579 0 1.791-.092 2.822-.317 3.656-.317 1.133-.944 2.34-1.677 3.195l-.303.351-.627-.373a7.77 7.77 0 0 0-2.325-.943c-2.67-.636-5.621-.249-7.608 1.002l-.458.293-.289-.344c-.394-.461-1.014-1.448-1.261-2.003-.542-1.258-.704-2.281-.704-4.533 0-2.186.113-2.025-1.507-2.113-2.071-.11-3.649-.483-4.642-1.111-.733-.468-.613-.885.409-1.375.979-.475 2.325-.76 4.191-.877 1.451-.095 1.486-.117 1.62-.819.197-1.06.979-1.938 1.965-2.215.246-.073 1.627-.088 5.854-.08l5.53.015.401.168zm-3.959 15.135c1.726.424 3.015 1.214 3.571 2.193.134.227.19.461.218.819.028.446.007.556-.162.921-.782 1.66-3.656 2.756-6.579 2.508-3.515-.293-5.826-2.252-4.917-4.175.493-1.038 2.163-2.033 3.924-2.325.289-.044.578-.095.634-.11s.69-.015 1.409 0c.979.022 1.451.066 1.902.168z" />
      <path
        d="M10.693 12.579c-.437.146-.733.336-1.127.731-.345.329-.373.717-.085.95.268.219.521.19.845-.095.409-.358.726-.505 1.12-.505.394-.007.697.132 1.12.505.324.285.578.314.845.095.141-.117.183-.212.183-.431 0-.227-.049-.329-.296-.578-.697-.702-1.733-.972-2.606-.673zM18.906 12.571c-.451.168-1.029.548-1.261.833-.225.278-.232.592 0 .826.232.249.514.234.852-.044.831-.687 1.451-.709 2.219-.073.197.168.423.3.493.3.345 0 .627-.307.627-.673 0-.234-.585-.775-1.113-1.031-.585-.285-1.282-.336-1.817-.139zM11.714 26.106c-.204.197-.275.483-.169.709.078.183.197.256.683.388.218.058.31.132.387.314.099.241.106.241.648.263l.542.022v-.205c-.007-.293-.169-.717-.38-1.009-.247-.336-.676-.556-1.162-.6-.331-.029-.416-.015-.549.117zM18.442 26.054c-.352.095-.859.57-1 .943a2.54 2.54 0 0 0-.134.665c-.014.314.014.388.183.541.416.366.965.08.965-.504 0-.285.211-.483.585-.556.394-.073.535-.234.542-.607 0-.49-.437-.68-1.141-.483z" />
    </symbol>
    <symbol id="weight" viewBox="0 0 32 32">
      <path
        d="M14.177.547c-3.974.589-7.247 2.796-8.451 5.685-.384.913-.488 1.473-.488 2.573.007.812.037 1.114.162 1.552.259.863.443 1.301.827 1.919l.355.575-.399.489c-3.154 3.924-3.502 9.444-.872 13.793.982 1.632 2.585 3.234 4.152 4.169l.465.273 12.743-.108.303-.165c1.056-.597 2.549-1.926 3.383-3.004a12.61 12.61 0 0 0 2.423-5.621c.118-.74.118-2.932-.007-3.63-.377-2.149-1.182-3.989-2.453-5.621-.244-.309-.436-.568-.436-.589 0-.014.133-.237.288-.489a7.762 7.762 0 0 0 .864-1.962c.199-.719.199-2.516 0-3.234-.709-2.552-2.837-4.679-5.843-5.851C20.351.97 18.91.618 17.98.503c-.864-.101-2.999-.079-3.804.043zm4.499 1.171c3.945.769 6.833 3.184 7.365 6.16.118.668.044 1.804-.155 2.437-.199.618-.569 1.344-1.005 1.962-.177.252-.325.539-.325.633s.155.338.377.582c1.847 2.048 2.822 4.614 2.822 7.389-.007 3.155-1.219 5.922-3.553 8.093-.399.374-.968.841-1.271 1.042l-.554.374-12.211.05-.473-.302c-1.714-1.114-3.258-2.954-4.115-4.909-1.079-2.472-1.189-5.34-.31-7.913.465-1.337 1.086-2.429 2.031-3.579.384-.46.561-.733.561-.863 0-.108-.192-.46-.443-.827-.886-1.287-1.248-2.717-1.034-4.068.222-1.366.842-2.487 1.987-3.601 1.492-1.445 3.575-2.401 6.02-2.76 1.012-.151 3.25-.093 4.285.101z" />
      <path
        d="M14.51 2.983c-3.029.496-5.4 2.178-6.176 4.384-.177.496-.207.69-.207 1.402s.03.906.207 1.402c.111.316.318.755.458.977.384.618.554.64 1.315.18a11.949 11.949 0 0 1 3.804-1.488c.916-.187 2.674-.259 3.671-.144 1.559.18 3.25.74 4.602 1.538.384.223.776.41.872.41.561 0 1.278-1.617 1.278-2.875 0-2.796-2.674-5.189-6.464-5.786-.805-.129-2.585-.129-3.361 0zm3.656 1.15c1.271.273 2.438.791 3.317 1.473 1.182.913 1.817 2.185 1.714 3.414-.037.489-.222 1.15-.332 1.222-.029.014-.443-.158-.916-.388a14.721 14.721 0 0 0-3.228-1.1c-.687-.144-.975-.165-2.512-.158-1.514 0-1.832.022-2.489.158a13.254 13.254 0 0 0-3.117 1.064c-1.101.525-1.042.532-1.241-.115-.258-.841-.096-1.955.406-2.796.266-.446.997-1.186 1.529-1.553 1.012-.697 1.899-1.013 3.804-1.358.391-.072 2.563.029 3.066.137zM16.962 13.405c-.207.259-.207.503.007.712.14.137.281.173.79.208.99.072 1.935.359 2.785.848.606.359 1.529 1.229 1.943 1.854.613.898 1.034 2.185 1.034 3.134 0 .331.029.431.185.575.236.237.547.237.776 0 .163-.165.17-.208.125-.913-.207-3.479-3.184-6.382-6.744-6.577l-.739-.043-.163.201z" />
    </symbol>
    <symbol id="ice-cream" viewBox="0 0 32 32">
      <path
        d="M16.108.107c.08.214.241 1.252.241 1.573 0 .797-.295 1.54-.837 2.122-.449.482-.897.75-1.975 1.185-1.198.489-1.694.783-2.256 1.339-.569.569-.904 1.192-1.024 1.921-.134.797 0 1.359.408 1.68l.208.161-.328.208c-.663.435-1.868 1.459-2.075 1.774-.402.603-.361 1.165.094 1.392l.214.107-.241.228c-.361.341-.435.576-.382 1.192.033.408.02.629-.074.964-.114.435-.114.442.033.75.147.301.562.683.937.843.181.08.187.107.228.723.02.355.053 1.486.08 2.517.02 1.031.067 1.975.107 2.089a.79.79 0 0 0 .274.361c.388.268.656.556.83.89.194.382.408 1.319 1.058 4.559l.455 2.276.281.268c.536.529 1.56.77 3.247.77 1.694 0 2.705-.234 3.24-.763l.288-.274.415-2.109c.917-4.613.997-4.867 1.714-5.436.221-.181.435-.402.475-.502.047-.114.094-.991.127-2.316.027-1.178.067-2.343.094-2.591l.04-.449.435-.328c.549-.422.763-.803.763-1.393-.007-.696-.462-1.459-1.292-2.142l-.395-.321.194-.274c.81-1.118.301-2.664-1.205-3.695l-.455-.315.167-.174c.743-.797.864-3.173.241-4.827-.375-.984-1.232-2.055-2.283-2.845C17.659.857 16.239 0 16.112 0c-.027 0-.027.047-.007.107zm1.928 2.336c.355.348.783.823.951 1.064.997 1.392 1.252 3.14.649 4.425-.241.522-.964 1.299-1.633 1.761-1.024.71-3.327 1.901-4.934 2.557-2.584 1.051-4.084 1.252-4.258.562-.067-.261.127-.469.951-1.018.743-.509 4.077-2.986 4.137-3.086.02-.027-.321.127-.75.341-1.453.736-2.142.596-2.109-.428.02-.743.556-1.587 1.299-2.069.187-.12.77-.388 1.305-.603 1.761-.71 2.296-1.071 2.892-1.962.355-.529.743-1.506.77-1.921.007-.147.034-.261.054-.261s.321.288.676.636zm1.828 7.606c.489.274.997.743 1.218 1.111.388.663.187 1.325-.649 2.169-.91.924-2.464 1.808-4.171 2.37-1.573.515-3.079.756-5.235.83l-1.339.047.87.054c1.125.074 3.3.007 4.144-.127 2.243-.355 4.151-1.064 5.516-2.042.308-.221.629-.402.716-.402.221 0 1.185.924 1.379 1.312.107.221.134.382.114.596-.1.89-1.185 1.366-3.802 1.68-3.2.382-7.384.007-9.172-.817-.844-.388-.984-.609-.77-1.198.067-.187.08-.408.054-.723-.033-.415-.027-.469.12-.623.335-.361.897-.569 2.959-1.091a28.11 28.11 0 0 0 2.176-.656c1.138-.415 3.274-1.493 4.264-2.156.93-.616 1.064-.643 1.607-.335zm-8.89 8.194c1.406.408 2.651.529 4.967.482 1.741-.034 2.812-.141 4.358-.415.315-.053.589-.1.623-.1.074 0 .053 2.571-.027 3.247-.087.716-.281 1.272-.489 1.406-.214.141-1.285.288-2.718.368-2.939.161-5.958 0-6.895-.375-.509-.207-.562-.475-.569-2.959 0-1.654.013-1.881.1-1.848.053.02.348.107.649.194zm1.586 5.69c.482.06 1.004.121 1.165.141l.288.034-.254.281c-.328.355-.83 1.064-1.011 1.426-.207.415-.274.442-.582.274l-.261-.147-.147-.91c-.08-.495-.167-.971-.187-1.051-.06-.174-.12-.174.991-.047zm7.137-.074c0 .013-.033.187-.067.382-.04.201-.208 1.292-.375 2.43-.341 2.377-.569 3.495-.777 3.869-.288.502-.977.797-2.095.89-.435.034-1.747-.053-1.821-.12-.053-.06 1.098-1.486 1.279-1.58.167-.094.214-.08.783.214.663.348.997.402.997.181s-.174-.435-.602-.73c-.395-.281-.536-.442-.536-.629 0-.053.194-.355.428-.669s.576-.817.75-1.118l.328-.542.301.04c.609.087.77.08.75-.053-.013-.067-.127-.261-.254-.422-.127-.167-.228-.335-.228-.368 0-.127.623-1.299.823-1.546.174-.214.315-.321.315-.228zm-4.184.536c.335.221 1.593 1.312 1.674 1.446.034.06-1.259 2.082-1.513 2.37-.027.034-.167-.033-.308-.141a22.133 22.133 0 0 0-1.165-.803l-.904-.596.542-.917c.964-1.613.944-1.587 1.151-1.587.107 0 .341.1.522.228zm2.537.241c-.234.288-.428.469-.509.469-.174 0-.455-.154-.93-.502l-.395-.288.79-.047c.428-.02.844-.047.917-.06.536-.087.536-.08.127.428zm-5.061 3.22c.616.241 1.66.81 1.962 1.064.214.174.214.187.127.402a6.675 6.675 0 0 1-.415.716c-.174.268-.375.602-.449.743-.214.415-.281.449-.723.328-.475-.141-.73-.382-.864-.817-.181-.609-.469-2.33-.435-2.598.013-.1.295-.04.797.161z" />
    </symbol>
    <!-- ================================
    FOOTER
    ===================================== -->
    <symbol id="github" viewBox="0 0 32 32">
      <path
        d="M16 0C7.212 0 0 7.212 0 16c0 7.499 5.262 14.312 12.25 16v-5.293c-.692.152-1.33.156-2.034-.052-.946-.279-1.714-.909-2.284-1.869-.364-.613-1.008-1.278-1.68-1.23l-.165-1.868c1.453-.124 2.711.886 3.457 2.14.332.558.713.884 1.203 1.029.473.14.982.072 1.574-.137.149-1.186.692-1.63 1.102-2.255v-.001c-4.167-.622-5.828-2.832-6.488-4.578-.874-2.317-.405-5.212 1.14-7.041.03-.036.084-.129.063-.194-.708-2.139.155-3.909.187-4.097.817.242.95-.243 3.551 1.337l.449.27c.188.112.129.048.317.034A13.544 13.544 0 0 1 16 7.723c1.136.015 2.273.178 3.404.484l.145.015c-.013-.002.04-.009.127-.062 3.248-1.968 3.132-1.324 4.003-1.608.032.188.883 1.987.182 4.099-.095.291 2.816 2.956 1.203 7.235-.659 1.746-2.32 3.957-6.487 4.578v.001c.534.814 1.176 1.247 1.173 2.927V32C26.738 30.312 32 23.499 32 16c0-8.788-7.212-16-16-16z" />
    </symbol>
    <symbol id="telegram" viewBox="0 0 44 32">
      <path
        d="m17.346 21.048-.675 8.86c.966 0 1.384-.387 1.885-.852l4.527-4.038 9.381 6.412c1.72.895 2.933.424 3.397-1.477l6.158-26.929.002-.002c.546-2.374-.92-3.302-2.596-2.72L3.231 13.235c-2.47.895-2.433 2.18-.42 2.762l9.253 2.686L33.558 6.131c1.011-.625 1.931-.279 1.175.346l-17.386 14.57z" />
    </symbol>
    <symbol id="facebook" viewBox="0 0 16 32">
      <path
        d="M14.143 15.972h-4.034v14.865H3.997V15.972H1.09v-5.224h2.907V7.367c0-2.418 1.142-6.203 6.166-6.203l4.527.019v5.071h-3.285c-.539 0-1.296.271-1.296 1.424v3.075h4.567l-.534 5.219z" />
    </symbol>
    <!-- =============================
    MODAL
    ================================= -->
    <symbol id="close-btn" viewBox="0 0 32 32">
      <path
        d="M17.253 16l7.369-7.369c0.146-0.17 0.222-0.389 0.213-0.612s-0.101-0.436-0.26-0.594c-0.158-0.158-0.371-0.251-0.594-0.26s-0.443 0.067-0.613 0.213l-7.369 7.369-7.369-7.378c-0.167-0.167-0.394-0.261-0.631-0.261s-0.464 0.094-0.631 0.261c-0.167 0.167-0.261 0.394-0.261 0.631s0.094 0.464 0.261 0.631l7.378 7.369-7.378 7.369c-0.093 0.080-0.169 0.178-0.222 0.288s-0.083 0.23-0.088 0.353c-0.005 0.122 0.016 0.244 0.061 0.359s0.112 0.218 0.199 0.304 0.19 0.154 0.304 0.199c0.114 0.045 0.236 0.065 0.359 0.061s0.243-0.035 0.353-0.088 0.208-0.129 0.288-0.222l7.378-7.369 7.369 7.369c0.17 0.146 0.389 0.222 0.613 0.213s0.436-0.101 0.594-0.26c0.158-0.158 0.251-0.371 0.26-0.594s-0.067-0.442-0.213-0.613l-7.369-7.369z">
      </path>
    </symbol>
  </defs>
</svg>